<svg id="visual" viewBox="0 0 960 300" width="960" height="300" xmlns="http://www.w3.org/2000/svg" xmlns:xlink="http://www.w3.org/1999/xlink" version="1.1"><path d="M0 207L14.5 205.3C29 203.7 58 200.3 87.2 196C116.3 191.7 145.7 186.3 174.8 191.5C204 196.7 233 212.3 262 215.5C291 218.7 320 209.3 349 200.2C378 191 407 182 436.2 178.2C465.3 174.3 494.7 175.7 523.8 183.8C553 192 582 207 611 214.8C640 222.7 669 223.3 698 221C727 218.7 756 213.3 785.2 206C814.3 198.7 843.7 189.3 872.8 188C902 186.7 931 193.3 945.5 196.7L960 200L960 301L945.5 301C931 301 902 301 872.8 301C843.7 301 814.3 301 785.2 301C756 301 727 301 698 301C669 301 640 301 611 301C582 301 553 301 523.8 301C494.7 301 465.3 301 436.2 301C407 301 378 301 349 301C320 301 291 301 262 301C233 301 204 301 174.8 301C145.7 301 116.3 301 87.2 301C58 301 29 301 14.5 301L0 301Z" fill="#a8dadc"></path><path d="M0 200L14.5 197C29 194 58 188 87.2 189.8C116.3 191.7 145.7 201.3 174.8 202C204 202.7 233 194.3 262 193.2C291 192 320 198 349 204.5C378 211 407 218 436.2 218.7C465.3 219.3 494.7 213.7 523.8 209.8C553 206 582 204 611 206.5C640 209 669 216 698 220.5C727 225 756 227 785.2 221.7C814.3 216.3 843.7 203.7 872.8 200.3C902 197 931 203 945.5 206L960 209L960 301L945.5 301C931 301 902 301 872.8 301C843.7 301 814.3 301 785.2 301C756 301 727 301 698 301C669 301 640 301 611 301C582 301 553 301 523.8 301C494.7 301 465.3 301 436.2 301C407 301 378 301 349 301C320 301 291 301 262 301C233 301 204 301 174.8 301C145.7 301 116.3 301 87.2 301C58 301 29 301 14.5 301L0 301Z" fill="#93d0d7"></path><path d="M0 224L14.5 227.3C29 230.7 58 237.3 87.2 237.3C116.3 237.3 145.7 230.7 174.8 225.3C204 220 233 216 262 214C291 212 320 212 349 212.7C378 213.3 407 214.7 436.2 215.8C465.3 217 494.7 218 523.8 215.2C553 212.3 582 205.7 611 202.3C640 199 669 199 698 203.8C727 208.7 756 218.3 785.2 225C814.3 231.7 843.7 235.3 872.8 233.5C902 231.7 931 224.3 945.5 220.7L960 217L960 301L945.5 301C931 301 902 301 872.8 301C843.7 301 814.3 301 785.2 301C756 301 727 301 698 301C669 301 640 301 611 301C582 301 553 301 523.8 301C494.7 301 465.3 301 436.2 301C407 301 378 301 349 301C320 301 291 301 262 301C233 301 204 301 174.8 301C145.7 301 116.3 301 87.2 301C58 301 29 301 14.5 301L0 301Z" fill="#7ec5d2"></path><path d="M0 258L14.5 257.8C29 257.7 58 257.3 87.2 257C116.3 256.7 145.7 256.3 174.8 252.8C204 249.3 233 242.7 262 236C291 229.3 320 222.7 349 222.2C378 221.7 407 227.3 436.2 228.5C465.3 229.7 494.7 226.3 523.8 228.5C553 230.7 582 238.3 611 240.3C640 242.3 669 238.7 698 236.5C727 234.3 756 233.7 785.2 235.3C814.3 237 843.7 241 872.8 240.7C902 240.3 931 235.7 945.5 233.3L960 231L960 301L945.5 301C931 301 902 301 872.8 301C843.7 301 814.3 301 785.2 301C756 301 727 301 698 301C669 301 640 301 611 301C582 301 553 301 523.8 301C494.7 301 465.3 301 436.2 301C407 301 378 301 349 301C320 301 291 301 262 301C233 301 204 301 174.8 301C145.7 301 116.3 301 87.2 301C58 301 29 301 14.5 301L0 301Z" fill="#68bacf"></path><path d="M0 247L14.5 248.8C29 250.7 58 254.3 87.2 253.2C116.3 252 145.7 246 174.8 242.3C204 238.7 233 237.3 262 240.5C291 243.7 320 251.3 349 253C378 254.7 407 250.3 436.2 252C465.3 253.7 494.7 261.3 523.8 261.3C553 261.3 582 253.7 611 250.7C640 247.7 669 249.3 698 251C727 252.7 756 254.3 785.2 252.7C814.3 251 843.7 246 872.8 244C902 242 931 243 945.5 243.5L960 244L960 301L945.5 301C931 301 902 301 872.8 301C843.7 301 814.3 301 785.2 301C756 301 727 301 698 301C669 301 640 301 611 301C582 301 553 301 523.8 301C494.7 301 465.3 301 436.2 301C407 301 378 301 349 301C320 301 291 301 262 301C233 301 204 301 174.8 301C145.7 301 116.3 301 87.2 301C58 301 29 301 14.5 301L0 301Z" fill="#52afcc"></path><path d="M0 282L14.5 280.8C29 279.7 58 277.3 87.2 276.7C116.3 276 145.7 277 174.8 277C204 277 233 276 262 273.8C291 271.7 320 268.3 349 264.5C378 260.7 407 256.3 436.2 255.3C465.3 254.3 494.7 256.7 523.8 256.8C553 257 582 255 611 255.3C640 255.7 669 258.3 698 259.3C727 260.3 756 259.7 785.2 258.3C814.3 257 843.7 255 872.8 258.8C902 262.7 931 272.3 945.5 277.2L960 282L960 301L945.5 301C931 301 902 301 872.8 301C843.7 301 814.3 301 785.2 301C756 301 727 301 698 301C669 301 640 301 611 301C582 301 553 301 523.8 301C494.7 301 465.3 301 436.2 301C407 301 378 301 349 301C320 301 291 301 262 301C233 301 204 301 174.8 301C145.7 301 116.3 301 87.2 301C58 301 29 301 14.5 301L0 301Z" fill="#3ca3ca"></path><path d="M0 268L14.5 270.5C29 273 58 278 87.2 281.8C116.3 285.7 145.7 288.3 174.8 285.8C204 283.3 233 275.7 262 273.2C291 270.7 320 273.3 349 276.2C378 279 407 282 436.2 282.8C465.3 283.7 494.7 282.3 523.8 281.7C553 281 582 281 611 280.8C640 280.7 669 280.3 698 278.7C727 277 756 274 785.2 273.5C814.3 273 843.7 275 872.8 276.8C902 278.7 931 280.3 945.5 281.2L960 282L960 301L945.5 301C931 301 902 301 872.8 301C843.7 301 814.3 301 785.2 301C756 301 727 301 698 301C669 301 640 301 611 301C582 301 553 301 523.8 301C494.7 301 465.3 301 436.2 301C407 301 378 301 349 301C320 301 291 301 262 301C233 301 204 301 174.8 301C145.7 301 116.3 301 87.2 301C58 301 29 301 14.5 301L0 301Z" fill="#2497c7"></path></svg>